<?xml version="1.0" encoding="UTF-8" standalone="no"?>
<svg width="36px" height="36px" viewBox="0 0 36 36" version="1.1" xmlns="http://www.w3.org/2000/svg" xmlns:xlink="http://www.w3.org/1999/xlink">
    <!-- Generator: Sketch 3.6.1 (26313) - http://www.bohemiancoding.com/sketch -->
    <title>icon-1</title>
    <desc>Created with Sketch.</desc>
    <defs></defs>
    <g id="Page-1" stroke="none" stroke-width="1" fill="none" fill-rule="evenodd">
        <g id="首页" transform="translate(-524.000000, -936.000000)">
            <g id="icon-1" transform="translate(524.000000, 936.000000)">
                <g id="Group-6" fill="#FFFFFF">
                    <path d="M36,18 C36,27.941 27.941,36 18,36 C8.059,36 0,27.941 0,18 C0,8.059 8.059,0 18,0 C27.941,0 36,8.059 36,18 L36,18 Z" id="Path"></path>
                </g>
                <g id="Code-Snippet" transform="translate(4.000000, 11.000000)" fill="#B36B9D">
                    <path d="M18.062175,2.15975 L12.512175,13.15975 C12.3503,13.4815 12.023775,13.6666667 11.6843,13.6666667 C11.54555,13.6666667 11.404025,13.6355 11.270825,13.5704167 C10.813875,13.3430833 10.628875,12.7930833 10.85735,12.34025 L16.40735,1.34025 C16.635825,0.887416667 17.190825,0.703166667 17.6487,0.929583333 C18.10565,1.15691667 18.29065,1.70691667 18.062175,2.15975 L18.062175,2.15975 Z M8.788125,3.12866667 C8.534675,2.68866667 7.9695,2.53741667 7.5255,2.78766667 L1.0505,6.45433333 C0.762825,6.6175 0.585225,6.92091667 0.585225,7.25 C0.585225,7.57908333 0.762825,7.8825 1.0505,8.04566667 L7.5255,11.7123333 C7.670725,11.7939167 7.8289,11.8333333 7.9843,11.8333333 C8.305275,11.8333333 8.617,11.6674167 8.788125,11.3713333 C9.041575,10.93225 8.8871,10.3721667 8.444025,10.121 L3.3741,7.25 L8.444025,4.379 C8.8871,4.12783333 9.041575,3.56775 8.788125,3.12866667 L8.788125,3.12866667 Z M27.869025,6.45433333 L21.394025,2.78766667 C20.95095,2.53741667 20.38485,2.68866667 20.1314,3.12866667 C19.878875,3.56775 20.032425,4.12783333 20.4755,4.379 L25.545425,7.25 L20.4755,10.121 C20.032425,10.3721667 19.878875,10.93225 20.1314,11.3713333 C20.302525,11.6674167 20.61425,11.8333333 20.93615,11.8333333 C21.09155,11.8333333 21.2488,11.7939167 21.394025,11.7123333 L27.869025,8.04566667 C28.1567,7.8825 28.335225,7.57908333 28.335225,7.25 C28.335225,6.92091667 28.1567,6.6175 27.869025,6.45433333 L27.869025,6.45433333 Z"></path>
                </g>
            </g>
        </g>
    </g>
</svg>