<?xml version="1.0" encoding="UTF-8" standalone="no"?>
<svg width="36px" height="36px" viewBox="0 0 36 36" version="1.1" xmlns="http://www.w3.org/2000/svg" xmlns:xlink="http://www.w3.org/1999/xlink">
    <!-- Generator: Sketch 3.6.1 (26313) - http://www.bohemiancoding.com/sketch -->
    <title>Flickr</title>
    <desc>Created with Sketch.</desc>
    <defs></defs>
    <g id="Page-1" stroke="none" stroke-width="1" fill="none" fill-rule="evenodd">
        <g id="首页" transform="translate(-654.000000, -936.000000)" fill="#FFFFFF">
            <path d="M672,936 C662.059,936 654,944.059 654,954 C654,963.941 662.059,972 672,972 C681.941,972 690,963.941 690,954 C690,944.059 681.941,936 672,936 L672,936 Z M663.812,957.5 C661.879,957.5 660.312,955.933 660.312,954 C660.312,952.067 661.879,950.5 663.812,950.5 C665.745,950.5 667.312,952.067 667.312,954 C667.312,955.933 665.745,957.5 663.812,957.5 L663.812,957.5 Z M680.188,957.5 C678.255,957.5 676.688,955.933 676.688,954 C676.688,952.067 678.255,950.5 680.188,950.5 C682.121,950.5 683.687,952.067 683.687,954 C683.687,955.933 682.121,957.5 680.188,957.5 L680.188,957.5 Z" id="Flickr"></path>
        </g>
    </g>
</svg>