<?xml version="1.0" encoding="UTF-8" standalone="no"?>
<svg width="36px" height="36px" viewBox="0 0 36 36" version="1.1" xmlns="http://www.w3.org/2000/svg" xmlns:xlink="http://www.w3.org/1999/xlink">
    <!-- Generator: Sketch 3.6.1 (26313) - http://www.bohemiancoding.com/sketch -->
    <title>Reddit</title>
    <desc>Created with Sketch.</desc>
    <defs></defs>
    <g id="Page-1" stroke="none" stroke-width="1" fill="none" fill-rule="evenodd">
        <g id="首页" transform="translate(-721.000000, -936.000000)" fill="#FFFFFF">
            <path d="M741.61,951.746 L741.602,951.743 C741.391,951.678 741.178,951.621 740.963,951.572 C740.321,951.425 739.662,951.353 739.005,951.353 C738.121,951.353 737.238,951.483 736.392,951.744 C735.293,952.093 734.233,952.707 733.553,953.658 C733.209,954.133 733.007,954.723 733.007,955.309 C733.007,955.526 733.034,955.742 733.091,955.952 L733.092,955.952 C733.216,956.424 733.458,956.845 733.771,957.212 C734.084,957.58 734.468,957.893 734.872,958.149 C734.961,958.205 735.051,958.257 735.143,958.309 C736.316,958.964 737.667,959.251 739.008,959.251 C739.235,959.251 739.463,959.243 739.689,959.227 C741.039,959.115 742.395,958.717 743.492,957.902 L743.492,957.901 C743.841,957.643 744.164,957.331 744.42,956.976 C744.677,956.62 744.865,956.223 744.948,955.792 L744.949,955.79 C744.983,955.629 744.999,955.465 744.999,955.301 C744.999,954.716 744.788,954.129 744.447,953.656 C743.766,952.708 742.709,952.09 741.61,951.746 L741.61,951.746 Z M735.652,955.041 C735.528,954.866 735.455,954.653 735.455,954.435 C735.455,954.335 735.471,954.235 735.503,954.137 L735.504,954.135 C735.616,953.779 735.923,953.52 736.272,953.447 L736.273,953.447 C736.274,953.447 736.275,953.446 736.276,953.446 C736.346,953.43 736.418,953.422 736.488,953.422 C736.752,953.422 737.007,953.53 737.199,953.707 C737.39,953.883 737.52,954.133 737.52,954.415 C737.52,954.429 737.52,954.443 737.519,954.455 L737.519,954.479 C737.519,954.763 737.387,955.012 737.194,955.187 C737.001,955.363 736.746,955.47 736.483,955.47 C736.378,955.47 736.271,955.452 736.168,955.414 C736.166,955.413 736.165,955.413 736.163,955.413 C736.162,955.412 736.161,955.412 736.159,955.412 C735.95,955.348 735.775,955.213 735.652,955.041 L735.652,955.041 Z M742.067,957.26 L742.067,957.261 C742.043,957.348 742,957.422 741.948,957.482 C741.895,957.543 741.833,957.589 741.77,957.629 C741.643,957.708 741.507,957.762 741.406,957.822 L741.402,957.824 L741.398,957.827 C740.626,958.19 739.759,958.389 738.897,958.389 C737.942,958.39 736.99,958.143 736.181,957.598 C736.099,957.554 736.036,957.487 735.995,957.412 C735.952,957.332 735.931,957.244 735.931,957.156 C735.931,957.058 735.956,956.96 736.008,956.876 C736.058,956.794 736.135,956.725 736.234,956.688 L736.233,956.688 C736.237,956.686 736.24,956.685 736.243,956.684 C736.306,956.655 736.369,956.642 736.43,956.642 C736.503,956.642 736.571,956.66 736.633,956.686 C736.695,956.712 736.752,956.747 736.805,956.781 C736.912,956.852 737.009,956.926 737.094,956.961 L737.097,956.962 L737.1,956.964 C737.665,957.241 738.29,957.374 738.918,957.374 C739.755,957.374 740.599,957.14 741.316,956.711 C741.392,956.661 741.477,956.638 741.559,956.638 C741.661,956.638 741.757,956.67 741.84,956.724 C741.922,956.778 741.992,956.854 742.035,956.945 C742.064,957.006 742.082,957.074 742.082,957.146 C742.082,957.184 742.077,957.222 742.067,957.26 L742.067,957.26 Z M742.345,955.049 C742.218,955.222 742.039,955.357 741.827,955.416 L741.828,955.416 C741.826,955.417 741.824,955.417 741.823,955.417 C741.823,955.417 741.821,955.418 741.82,955.418 C741.721,955.452 741.62,955.468 741.519,955.468 C741.283,955.468 741.052,955.383 740.866,955.238 C740.682,955.093 740.543,954.886 740.5,954.64 L740.499,954.64 L740.499,954.637 C740.499,954.637 740.499,954.636 740.498,954.635 L740.499,954.635 C740.485,954.571 740.478,954.508 740.478,954.445 C740.478,954.232 740.551,954.028 740.67,953.858 C740.79,953.69 740.958,953.557 741.155,953.488 L741.157,953.488 C741.158,953.488 741.158,953.487 741.158,953.487 C741.27,953.446 741.388,953.425 741.504,953.425 C741.716,953.425 741.925,953.489 742.101,953.607 C742.275,953.723 742.416,953.892 742.487,954.103 C742.488,954.104 742.488,954.106 742.488,954.107 C742.488,954.108 742.489,954.109 742.49,954.11 L742.489,954.11 C742.531,954.217 742.55,954.328 742.55,954.437 C742.55,954.659 742.473,954.873 742.345,955.049 L742.345,955.049 Z M743.264,948.643 C743.262,948.625 743.261,948.607 743.261,948.589 C743.261,948.392 743.339,948.202 743.466,948.049 C743.592,947.895 743.768,947.779 743.957,947.73 L743.959,947.729 L743.961,947.729 C744.033,947.707 744.106,947.697 744.179,947.697 C744.408,947.696 744.639,947.799 744.811,947.966 C744.983,948.132 745.093,948.357 745.093,948.592 C745.093,948.61 745.093,948.627 745.091,948.644 L745.091,948.647 C745.082,948.876 744.973,949.088 744.806,949.245 C744.641,949.4 744.42,949.496 744.197,949.496 C744.182,949.496 744.165,949.496 744.149,949.495 L744.144,949.495 C743.923,949.494 743.706,949.397 743.542,949.241 C743.379,949.085 743.272,948.873 743.264,948.646 L743.264,948.643 L743.264,948.643 Z M732.312,953.768 C732.218,953.682 732.135,953.584 732.072,953.477 C731.987,953.333 731.937,953.174 731.937,953.01 C731.937,952.99 731.937,952.968 731.939,952.947 L731.94,952.942 C731.949,952.676 732.078,952.435 732.272,952.257 C732.467,952.078 732.725,951.966 732.982,951.959 L732.986,951.958 L732.99,951.958 C733.02,951.955 733.05,951.953 733.08,951.953 C733.259,951.953 733.439,952.011 733.614,952.092 C733.079,952.555 732.611,953.112 732.312,953.768 L732.312,953.768 Z M745.962,952.559 C746.033,952.691 746.065,952.832 746.065,952.974 C746.065,953.142 746.019,953.312 745.938,953.464 C745.875,953.58 745.792,953.684 745.694,953.769 C745.39,953.11 744.919,952.551 744.383,952.085 C744.552,952 744.742,951.957 744.933,951.957 C745.144,951.957 745.355,952.009 745.535,952.11 C745.715,952.211 745.864,952.359 745.959,952.555 L745.96,952.557 L745.962,952.559 L745.962,952.559 Z M739,936 C729.059,936 721,944.059 721,954 C721,963.941 729.059,972 739,972 C748.941,972 757,963.941 757,954 C757,944.059 748.941,936 739,936 L739,936 Z M746.777,954.068 C746.58,954.369 746.308,954.621 745.996,954.792 C746.016,954.949 746.027,955.107 746.027,955.264 C746.027,956.113 745.734,956.947 745.225,957.616 L745.224,957.616 C744.282,958.87 742.835,959.609 741.374,959.981 L741.373,959.982 C740.594,960.172 739.79,960.268 738.987,960.268 C737.79,960.268 736.594,960.052 735.478,959.605 L735.477,959.604 L735.476,959.604 C734.319,959.127 733.216,958.368 732.54,957.257 C732.176,956.665 731.977,955.969 731.977,955.271 C731.977,955.112 731.987,954.954 732.008,954.798 C731.704,954.626 731.44,954.383 731.244,954.093 C731.035,953.781 730.902,953.415 730.886,953.029 L730.886,953.023 C730.886,952.482 731.121,951.97 731.486,951.592 C731.851,951.214 732.35,950.967 732.885,950.967 L732.907,950.967 C732.963,950.963 733.02,950.961 733.077,950.961 C733.345,950.961 733.615,951.005 733.87,951.103 L733.872,951.104 L733.873,951.104 C734.092,951.196 734.308,951.307 734.502,951.461 C734.565,951.428 734.633,951.391 734.71,951.362 C735.882,950.668 737.244,950.4 738.572,950.323 C738.583,949.665 738.664,948.977 738.985,948.374 C739.252,947.873 739.716,947.484 740.268,947.348 L740.27,947.347 L740.273,947.347 C740.483,947.306 740.695,947.288 740.906,947.288 C741.467,947.288 742.021,947.42 742.54,947.628 C742.769,947.281 743.097,947.011 743.482,946.859 L743.486,946.857 L743.489,946.856 C743.715,946.785 743.953,946.744 744.193,946.744 C744.445,946.744 744.7,946.79 744.938,946.897 L744.938,946.896 C744.938,946.897 744.939,946.897 744.939,946.897 C744.94,946.897 744.942,946.898 744.943,946.898 C745.285,947.03 745.574,947.273 745.779,947.576 C745.985,947.879 746.106,948.243 746.106,948.617 C746.106,948.686 746.102,948.755 746.094,948.824 L746.093,948.825 L746.093,948.829 C746.052,949.312 745.808,949.736 745.461,950.039 C745.112,950.342 744.661,950.526 744.197,950.526 C744.123,950.526 744.048,950.522 743.973,950.512 C743.514,950.477 743.085,950.254 742.77,949.923 C742.454,949.593 742.251,949.152 742.251,948.675 C742.251,948.652 742.253,948.629 742.254,948.606 C741.822,948.414 741.364,948.254 740.909,948.255 C740.843,948.255 740.777,948.258 740.711,948.265 C740.369,948.298 740.053,948.513 739.899,948.822 L739.899,948.823 C739.666,949.277 739.619,949.808 739.612,950.335 C740.919,950.42 742.234,950.734 743.387,951.396 L743.389,951.396 L743.405,951.406 C743.427,951.419 743.468,951.441 743.504,951.461 C743.584,951.397 743.667,951.33 743.763,951.273 C744.113,951.041 744.527,950.925 744.941,950.925 C745.125,950.925 745.309,950.948 745.488,950.994 L745.496,950.996 C745.498,950.997 745.5,950.998 745.502,950.998 C745.924,951.105 746.306,951.348 746.593,951.674 C746.881,952.002 747.074,952.416 747.112,952.865 L747.112,952.866 L747.111,952.866 L747.111,952.867 C747.113,952.903 747.114,952.938 747.114,952.973 C747.114,953.368 746.988,953.747 746.777,954.068 L746.777,954.068 Z" id="Reddit"></path>
        </g>
    </g>
</svg>