<?xml version="1.0" encoding="UTF-8" standalone="no"?>
<svg width="36px" height="36px" viewBox="0 0 36 36" version="1.1" xmlns="http://www.w3.org/2000/svg" xmlns:xlink="http://www.w3.org/1999/xlink">
    <!-- Generator: Sketch 3.6.1 (26313) - http://www.bohemiancoding.com/sketch -->
    <title>Dribbble</title>
    <desc>Created with Sketch.</desc>
    <defs></defs>
    <g id="Page-1" stroke="none" stroke-width="1" fill="none" fill-rule="evenodd">
        <g id="首页" transform="translate(-589.000000, -936.000000)" fill="#FFFFFF">
            <path d="M600.519,952.077 C600.103,952.077 599.695,952.061 599.289,952.038 C599.86,949.796 601.38,947.936 603.399,946.908 C604.548,948.05 605.628,949.511 606.572,951.214 C604.775,951.761 602.715,952.077 600.519,952.077 L600.519,952.077 Z M608.321,955.105 C607.979,955.18 607.682,955.264 607.456,955.367 C605.071,956.448 603.181,958.184 602.122,960.282 C603.47,961.331 605.16,961.96 607,961.96 C607.994,961.96 608.941,961.772 609.818,961.438 C609.668,960.172 609.427,958.872 609.081,957.552 C608.86,956.709 608.604,955.893 608.321,955.105 L608.321,955.105 Z M607.1,954.004 C607.296,953.923 607.539,953.853 607.812,953.79 C607.641,953.376 607.461,952.972 607.274,952.579 C605.271,953.223 602.934,953.612 600.429,953.643 C599.964,953.648 599.506,953.64 599.054,953.62 C599.048,953.746 599.04,953.873 599.04,954 C599.04,956.016 599.795,957.85 601.03,959.254 C602.201,957.009 604.358,955.153 607.1,954.004 L607.1,954.004 Z M612.078,947.873 C610.7,946.729 608.931,946.041 607,946.041 C606.323,946.041 605.67,946.133 605.042,946.293 C606.177,947.455 607.239,948.928 608.165,950.637 C609.858,949.919 611.213,948.968 612.078,947.873 L612.078,947.873 Z M625,954 C625,963.941 616.941,972 607,972 C597.059,972 589,963.941 589,954 C589,944.059 597.059,936 607,936 C616.941,936 625,944.059 625,954 L625,954 Z M616.552,954 C616.552,948.725 612.276,944.448 607,944.448 C601.725,944.448 597.448,948.725 597.448,954 C597.448,959.277 601.725,963.552 607,963.552 C612.276,963.552 616.552,959.277 616.552,954 L616.552,954 Z M609.989,954.88 C610.196,955.494 610.391,956.121 610.56,956.767 C610.909,958.101 611.152,959.413 611.302,960.692 C613.268,959.424 614.639,957.321 614.908,954.88 C613.423,954.772 611.55,954.752 609.989,954.88 L609.989,954.88 Z M608.847,951.994 C609.079,952.49 609.294,953.008 609.501,953.537 C611.157,953.381 613.216,953.379 614.936,953.47 C614.819,951.713 614.136,950.11 613.061,948.848 C612.225,950.084 610.756,951.169 608.847,951.994 L608.847,951.994 Z" id="Dribbble"></path>
        </g>
    </g>
</svg>